<?xml version="1.0" encoding="UTF-8" standalone="no"?>
<!DOCTYPE svg PUBLIC "-//W3C//DTD SVG 1.1//EN" "http://www.w3.org/Graphics/SVG/1.1/DTD/svg11.dtd">
<svg width="100%" height="100%" viewBox="0 0 72 72" version="1.1" xmlns="http://www.w3.org/2000/svg" xmlns:xlink="http://www.w3.org/1999/xlink" xml:space="preserve" xmlns:serif="http://www.serif.com/" style="fill-rule:evenodd;clip-rule:evenodd;stroke-linecap:round;stroke-linejoin:round;stroke-miterlimit:1.5;">
    <g id="Logo-White" transform="matrix(0.0421381,0,0,0.0421381,-4.45258,-4.45258)">
        <g transform="matrix(1,0,0,1,-37.2,25)">
            <g transform="matrix(0.801614,0,0,1.00804,185.575,-3.55579)">
                <rect x="914.361" y="659.08" width="45.639" height="56.763" style="fill:white;"/>
            </g>
            <g transform="matrix(0.801614,0,0,1.00804,245.943,-3.55579)">
                <rect x="914.361" y="659.08" width="45.639" height="56.763" style="fill:white;"/>
            </g>
            <g transform="matrix(0.801614,0,0,1.00804,306.246,-3.55579)">
                <rect x="914.361" y="659.08" width="45.639" height="56.763" style="fill:white;"/>
            </g>
            <g transform="matrix(0.99505,0,0,1.51355,6.98349,-368.75)">
                <path d="M867.876,718.041L551.97,718.041L981.317,611.766L1410.66,718.041L1119.08,718.041L1119.08,660.235L867.876,660.235L867.876,718.041Z" style="fill:white;"/>
            </g>
            <g transform="matrix(1,0,0,1,-9.40956,1.06274)">
                <path d="M500.243,716.978L992.852,475.588L1485.59,716.978L992.852,531.19L500.243,716.978Z" style="fill:white;"/>
            </g>
            <g transform="matrix(1.04762,0,0,1.01504,-33.7913,-9.72719)">
                <path d="M765.411,470.177L765.411,597.996L625.926,660.615L625.926,470.177L765.411,470.177Z" style="fill:white;"/>
            </g>
            <g transform="matrix(1,0,0,0.673913,3.64181,253.12)">
                <rect x="476.458" y="733.206" width="1034.2" height="61.108" style="fill:white;"/>
            </g>
        </g>
        <g transform="matrix(1.01065,0,5.27365e-18,0.682243,-1.67785,296.383)">
            <rect x="328.009" y="799.417" width="1247.07" height="177.678" style="fill:white;"/>
        </g>
        <g transform="matrix(0.527886,0,0,0.527886,62.464,314.568)">
            <g transform="matrix(153.001,0,0,153.001,2826.16,1166.4)">
            </g>
            <text x="570.448px" y="1166.4px" style="font-family:'Arial-BoldMT', 'Arial', sans-serif;font-weight:700;font-size:153.001px;">Line International Project L<tspan x="2539.96px 2582.47px 2673.16px 2715.67px " y="1166.4px 1166.4px 1166.4px 1166.4px "> L C</tspan></text>
        </g>
        <g transform="matrix(1,0,0,1,3.27697,26.753)">
            <g>
                <path d="M1151.34,1781.81C1015.74,1682.24 808.94,1555.4 621.422,1486.03C10.932,1260.16 46.613,345.018 846.841,183.749" style="fill:none;stroke:white;stroke-width:20.37px;"/>
                <g transform="matrix(0.226663,0.973973,-0.973973,0.226663,2348.73,-418.452)">
                    <g transform="matrix(40.934,-3.55271e-15,3.55271e-15,40.934,-7304.02,-14401.8)">
                        <path d="M182.585,393.354C182.965,393.778 183.453,393.992 183.861,394.099C184.262,394.206 184.566,394.212 184.566,394.212C184.566,394.212 184.865,394.164 185.248,394.018C185.627,393.871 186.11,393.63 186.469,393.259C186.619,393.103 186.736,392.934 186.827,392.766C187.016,392.449 187.113,392.133 187.161,391.894C187.183,391.774 187.204,391.674 187.215,391.604C187.225,391.533 187.228,391.494 187.228,391.494C187.228,391.494 186.925,391.496 186.523,391.587C186.116,391.68 185.629,391.866 185.251,392.243C185.092,392.401 184.967,392.582 184.867,392.766C184.704,393.096 184.625,393.442 184.585,393.711C184.542,393.98 184.567,394.172 184.565,394.206C184.567,394.172 184.537,393.982 184.489,393.715C184.437,393.448 184.339,393.106 184.16,392.766C184.069,392.576 183.952,392.386 183.801,392.208C183.444,391.787 182.964,391.52 182.586,391.357C182.203,391.197 181.904,391.146 181.904,391.146C181.904,391.146 181.9,391.197 181.898,391.288C181.896,391.379 181.895,391.508 181.915,391.66C181.95,391.969 182.028,392.376 182.199,392.766C182.299,392.972 182.426,393.173 182.585,393.354Z" style="fill:white;fill-rule:nonzero;"/>
                    </g>
                    <g transform="matrix(23.4522,-21.7852,21.7852,23.4522,-6433.1,7064.67)">
                        <path d="M270.157,15.753C270.157,15.753 269.727,21.097 266.316,20.123C264.914,16.863 270.157,15.753 270.157,15.753Z" style="fill:white;fill-rule:nonzero;"/>
                        <path d="M270.157,15.753C270.157,15.753 269.727,21.097 266.316,20.123C264.914,16.863 270.157,15.753 270.157,15.753ZM269.978,15.956C269.461,16.09 268.101,16.499 267.163,17.295C266.422,17.924 265.951,18.803 266.431,19.993C267.671,20.317 268.482,19.737 269.011,18.921C269.68,17.888 269.911,16.487 269.978,15.956Z"/>
                    </g>
                </g>
                <g transform="matrix(0.364814,0.931081,-0.931081,0.364814,2128.19,-598.317)">
                    <g transform="matrix(40.934,-3.55271e-15,3.55271e-15,40.934,-7304.02,-14401.8)">
                        <path d="M182.585,393.354C182.965,393.778 183.453,393.992 183.861,394.099C184.262,394.206 184.566,394.212 184.566,394.212C184.566,394.212 184.865,394.164 185.248,394.018C185.627,393.871 186.11,393.63 186.469,393.259C186.619,393.103 186.736,392.934 186.827,392.766C187.016,392.449 187.113,392.133 187.161,391.894C187.183,391.774 187.204,391.674 187.215,391.604C187.225,391.533 187.228,391.494 187.228,391.494C187.228,391.494 186.925,391.496 186.523,391.587C186.116,391.68 185.629,391.866 185.251,392.243C185.092,392.401 184.967,392.582 184.867,392.766C184.704,393.096 184.625,393.442 184.585,393.711C184.542,393.98 184.567,394.172 184.565,394.206C184.567,394.172 184.537,393.982 184.489,393.715C184.437,393.448 184.339,393.106 184.16,392.766C184.069,392.576 183.952,392.386 183.801,392.208C183.444,391.787 182.964,391.52 182.586,391.357C182.203,391.197 181.904,391.146 181.904,391.146C181.904,391.146 181.9,391.197 181.898,391.288C181.896,391.379 181.895,391.508 181.915,391.66C181.95,391.969 182.028,392.376 182.199,392.766C182.299,392.972 182.426,393.173 182.585,393.354Z" style="fill:white;fill-rule:nonzero;"/>
                    </g>
                    <g transform="matrix(23.4522,-21.7852,21.7852,23.4522,-6433.1,7064.67)">
                        <path d="M270.157,15.753C270.157,15.753 269.727,21.097 266.316,20.123C264.914,16.863 270.157,15.753 270.157,15.753Z" style="fill:white;fill-rule:nonzero;"/>
                        <path d="M270.157,15.753C270.157,15.753 269.727,21.097 266.316,20.123C264.914,16.863 270.157,15.753 270.157,15.753ZM269.978,15.956C269.461,16.09 268.101,16.499 267.163,17.295C266.422,17.924 265.951,18.803 266.431,19.993C267.671,20.317 268.482,19.737 269.011,18.921C269.68,17.888 269.911,16.487 269.978,15.956Z"/>
                    </g>
                </g>
                <g transform="matrix(0.495331,0.868705,-0.868705,0.495331,1884,-744.481)">
                    <g transform="matrix(40.934,-3.55271e-15,3.55271e-15,40.934,-7304.02,-14401.8)">
                        <path d="M182.585,393.354C182.965,393.778 183.453,393.992 183.861,394.099C184.262,394.206 184.566,394.212 184.566,394.212C184.566,394.212 184.865,394.164 185.248,394.018C185.627,393.871 186.11,393.63 186.469,393.259C186.619,393.103 186.736,392.934 186.827,392.766C187.016,392.449 187.113,392.133 187.161,391.894C187.183,391.774 187.204,391.674 187.215,391.604C187.225,391.533 187.228,391.494 187.228,391.494C187.228,391.494 186.925,391.496 186.523,391.587C186.116,391.68 185.629,391.866 185.251,392.243C185.092,392.401 184.967,392.582 184.867,392.766C184.704,393.096 184.625,393.442 184.585,393.711C184.542,393.98 184.567,394.172 184.565,394.206C184.567,394.172 184.537,393.982 184.489,393.715C184.437,393.448 184.339,393.106 184.16,392.766C184.069,392.576 183.952,392.386 183.801,392.208C183.444,391.787 182.964,391.52 182.586,391.357C182.203,391.197 181.904,391.146 181.904,391.146C181.904,391.146 181.9,391.197 181.898,391.288C181.896,391.379 181.895,391.508 181.915,391.66C181.95,391.969 182.028,392.376 182.199,392.766C182.299,392.972 182.426,393.173 182.585,393.354Z" style="fill:white;fill-rule:nonzero;"/>
                    </g>
                    <g transform="matrix(23.4522,-21.7852,21.7852,23.4522,-6433.1,7064.67)">
                        <path d="M270.157,15.753C270.157,15.753 269.727,21.097 266.316,20.123C264.914,16.863 270.157,15.753 270.157,15.753Z" style="fill:white;fill-rule:nonzero;"/>
                        <path d="M270.157,15.753C270.157,15.753 269.727,21.097 266.316,20.123C264.914,16.863 270.157,15.753 270.157,15.753ZM269.978,15.956C269.461,16.09 268.101,16.499 267.163,17.295C266.422,17.924 265.951,18.803 266.431,19.993C267.671,20.317 268.482,19.737 269.011,18.921C269.68,17.888 269.911,16.487 269.978,15.956Z"/>
                    </g>
                </g>
                <g transform="matrix(0.607675,0.794186,-0.794186,0.607675,1632.94,-842.773)">
                    <g transform="matrix(40.934,-3.55271e-15,3.55271e-15,40.934,-7304.02,-14401.8)">
                        <path d="M182.585,393.354C182.965,393.778 183.453,393.992 183.861,394.099C184.262,394.206 184.566,394.212 184.566,394.212C184.566,394.212 184.865,394.164 185.248,394.018C185.627,393.871 186.11,393.63 186.469,393.259C186.619,393.103 186.736,392.934 186.827,392.766C187.016,392.449 187.113,392.133 187.161,391.894C187.183,391.774 187.204,391.674 187.215,391.604C187.225,391.533 187.228,391.494 187.228,391.494C187.228,391.494 186.925,391.496 186.523,391.587C186.116,391.68 185.629,391.866 185.251,392.243C185.092,392.401 184.967,392.582 184.867,392.766C184.704,393.096 184.625,393.442 184.585,393.711C184.542,393.98 184.567,394.172 184.565,394.206C184.567,394.172 184.537,393.982 184.489,393.715C184.437,393.448 184.339,393.106 184.16,392.766C184.069,392.576 183.952,392.386 183.801,392.208C183.444,391.787 182.964,391.52 182.586,391.357C182.203,391.197 181.904,391.146 181.904,391.146C181.904,391.146 181.9,391.197 181.898,391.288C181.896,391.379 181.895,391.508 181.915,391.66C181.95,391.969 182.028,392.376 182.199,392.766C182.299,392.972 182.426,393.173 182.585,393.354Z" style="fill:white;fill-rule:nonzero;"/>
                    </g>
                    <g transform="matrix(23.4522,-21.7852,21.7852,23.4522,-6433.1,7064.67)">
                        <path d="M270.157,15.753C270.157,15.753 269.727,21.097 266.316,20.123C264.914,16.863 270.157,15.753 270.157,15.753Z" style="fill:white;fill-rule:nonzero;"/>
                        <path d="M270.157,15.753C270.157,15.753 269.727,21.097 266.316,20.123C264.914,16.863 270.157,15.753 270.157,15.753ZM269.978,15.956C269.461,16.09 268.101,16.499 267.163,17.295C266.422,17.924 265.951,18.803 266.431,19.993C267.671,20.317 268.482,19.737 269.011,18.921C269.68,17.888 269.911,16.487 269.978,15.956Z"/>
                    </g>
                </g>
                <g transform="matrix(0.73939,0.673278,-0.673278,0.73939,1311.91,-947.611)">
                    <g transform="matrix(40.934,-3.55271e-15,3.55271e-15,40.934,-7304.02,-14401.8)">
                        <path d="M182.585,393.354C182.965,393.778 183.453,393.992 183.861,394.099C184.262,394.206 184.566,394.212 184.566,394.212C184.566,394.212 184.865,394.164 185.248,394.018C185.627,393.871 186.11,393.63 186.469,393.259C186.619,393.103 186.736,392.934 186.827,392.766C187.016,392.449 187.113,392.133 187.161,391.894C187.183,391.774 187.204,391.674 187.215,391.604C187.225,391.533 187.228,391.494 187.228,391.494C187.228,391.494 186.925,391.496 186.523,391.587C186.116,391.68 185.629,391.866 185.251,392.243C185.092,392.401 184.967,392.582 184.867,392.766C184.704,393.096 184.625,393.442 184.585,393.711C184.542,393.98 184.567,394.172 184.565,394.206C184.567,394.172 184.537,393.982 184.489,393.715C184.437,393.448 184.339,393.106 184.16,392.766C184.069,392.576 183.952,392.386 183.801,392.208C183.444,391.787 182.964,391.52 182.586,391.357C182.203,391.197 181.904,391.146 181.904,391.146C181.904,391.146 181.9,391.197 181.898,391.288C181.896,391.379 181.895,391.508 181.915,391.66C181.95,391.969 182.028,392.376 182.199,392.766C182.299,392.972 182.426,393.173 182.585,393.354Z" style="fill:white;fill-rule:nonzero;"/>
                    </g>
                    <g transform="matrix(23.4522,-21.7852,21.7852,23.4522,-6433.1,7064.67)">
                        <path d="M270.157,15.753C270.157,15.753 269.727,21.097 266.316,20.123C264.914,16.863 270.157,15.753 270.157,15.753Z" style="fill:white;fill-rule:nonzero;"/>
                        <path d="M270.157,15.753C270.157,15.753 269.727,21.097 266.316,20.123C264.914,16.863 270.157,15.753 270.157,15.753ZM269.978,15.956C269.461,16.09 268.101,16.499 267.163,17.295C266.422,17.924 265.951,18.803 266.431,19.993C267.671,20.317 268.482,19.737 269.011,18.921C269.68,17.888 269.911,16.487 269.978,15.956Z"/>
                    </g>
                </g>
                <g transform="matrix(0.83253,0.55398,-0.55398,0.83253,1018.33,-975.194)">
                    <g transform="matrix(40.934,-3.55271e-15,3.55271e-15,40.934,-7304.02,-14401.8)">
                        <path d="M182.585,393.354C182.965,393.778 183.453,393.992 183.861,394.099C184.262,394.206 184.566,394.212 184.566,394.212C184.566,394.212 184.865,394.164 185.248,394.018C185.627,393.871 186.11,393.63 186.469,393.259C186.619,393.103 186.736,392.934 186.827,392.766C187.016,392.449 187.113,392.133 187.161,391.894C187.183,391.774 187.204,391.674 187.215,391.604C187.225,391.533 187.228,391.494 187.228,391.494C187.228,391.494 186.925,391.496 186.523,391.587C186.116,391.68 185.629,391.866 185.251,392.243C185.092,392.401 184.967,392.582 184.867,392.766C184.704,393.096 184.625,393.442 184.585,393.711C184.542,393.98 184.567,394.172 184.565,394.206C184.567,394.172 184.537,393.982 184.489,393.715C184.437,393.448 184.339,393.106 184.16,392.766C184.069,392.576 183.952,392.386 183.801,392.208C183.444,391.787 182.964,391.52 182.586,391.357C182.203,391.197 181.904,391.146 181.904,391.146C181.904,391.146 181.9,391.197 181.898,391.288C181.896,391.379 181.895,391.508 181.915,391.66C181.95,391.969 182.028,392.376 182.199,392.766C182.299,392.972 182.426,393.173 182.585,393.354Z" style="fill:white;fill-rule:nonzero;"/>
                    </g>
                    <g transform="matrix(23.4522,-21.7852,21.7852,23.4522,-6433.1,7064.67)">
                        <path d="M270.157,15.753C270.157,15.753 269.727,21.097 266.316,20.123C264.914,16.863 270.157,15.753 270.157,15.753Z" style="fill:white;fill-rule:nonzero;"/>
                        <path d="M270.157,15.753C270.157,15.753 269.727,21.097 266.316,20.123C264.914,16.863 270.157,15.753 270.157,15.753ZM269.978,15.956C269.461,16.09 268.101,16.499 267.163,17.295C266.422,17.924 265.951,18.803 266.431,19.993C267.671,20.317 268.482,19.737 269.011,18.921C269.68,17.888 269.911,16.487 269.978,15.956Z"/>
                    </g>
                </g>
                <g transform="matrix(0.929042,0.369975,-0.369975,0.929042,634.521,-981.57)">
                    <g transform="matrix(40.934,-3.55271e-15,3.55271e-15,40.934,-7304.02,-14401.8)">
                        <path d="M182.585,393.354C182.965,393.778 183.453,393.992 183.861,394.099C184.262,394.206 184.566,394.212 184.566,394.212C184.566,394.212 184.865,394.164 185.248,394.018C185.627,393.871 186.11,393.63 186.469,393.259C186.619,393.103 186.736,392.934 186.827,392.766C187.016,392.449 187.113,392.133 187.161,391.894C187.183,391.774 187.204,391.674 187.215,391.604C187.225,391.533 187.228,391.494 187.228,391.494C187.228,391.494 186.925,391.496 186.523,391.587C186.116,391.68 185.629,391.866 185.251,392.243C185.092,392.401 184.967,392.582 184.867,392.766C184.704,393.096 184.625,393.442 184.585,393.711C184.542,393.98 184.567,394.172 184.565,394.206C184.567,394.172 184.537,393.982 184.489,393.715C184.437,393.448 184.339,393.106 184.16,392.766C184.069,392.576 183.952,392.386 183.801,392.208C183.444,391.787 182.964,391.52 182.586,391.357C182.203,391.197 181.904,391.146 181.904,391.146C181.904,391.146 181.9,391.197 181.898,391.288C181.896,391.379 181.895,391.508 181.915,391.66C181.95,391.969 182.028,392.376 182.199,392.766C182.299,392.972 182.426,393.173 182.585,393.354Z" style="fill:white;fill-rule:nonzero;"/>
                    </g>
                    <g transform="matrix(23.4522,-21.7852,21.7852,23.4522,-6433.1,7064.67)">
                        <path d="M270.157,15.753C270.157,15.753 269.727,21.097 266.316,20.123C264.914,16.863 270.157,15.753 270.157,15.753Z" style="fill:white;fill-rule:nonzero;"/>
                        <path d="M270.157,15.753C270.157,15.753 269.727,21.097 266.316,20.123C264.914,16.863 270.157,15.753 270.157,15.753ZM269.978,15.956C269.461,16.09 268.101,16.499 267.163,17.295C266.422,17.924 265.951,18.803 266.431,19.993C267.671,20.317 268.482,19.737 269.011,18.921C269.68,17.888 269.911,16.487 269.978,15.956Z"/>
                    </g>
                </g>
                <g transform="matrix(0.980498,0.19653,-0.19653,0.980498,301.698,-907.035)">
                    <g transform="matrix(40.934,-3.55271e-15,3.55271e-15,40.934,-7304.02,-14401.8)">
                        <path d="M182.585,393.354C182.965,393.778 183.453,393.992 183.861,394.099C184.262,394.206 184.566,394.212 184.566,394.212C184.566,394.212 184.865,394.164 185.248,394.018C185.627,393.871 186.11,393.63 186.469,393.259C186.619,393.103 186.736,392.934 186.827,392.766C187.016,392.449 187.113,392.133 187.161,391.894C187.183,391.774 187.204,391.674 187.215,391.604C187.225,391.533 187.228,391.494 187.228,391.494C187.228,391.494 186.925,391.496 186.523,391.587C186.116,391.68 185.629,391.866 185.251,392.243C185.092,392.401 184.967,392.582 184.867,392.766C184.704,393.096 184.625,393.442 184.585,393.711C184.542,393.98 184.567,394.172 184.565,394.206C184.567,394.172 184.537,393.982 184.489,393.715C184.437,393.448 184.339,393.106 184.16,392.766C184.069,392.576 183.952,392.386 183.801,392.208C183.444,391.787 182.964,391.52 182.586,391.357C182.203,391.197 181.904,391.146 181.904,391.146C181.904,391.146 181.9,391.197 181.898,391.288C181.896,391.379 181.895,391.508 181.915,391.66C181.95,391.969 182.028,392.376 182.199,392.766C182.299,392.972 182.426,393.173 182.585,393.354Z" style="fill:white;fill-rule:nonzero;"/>
                    </g>
                    <g transform="matrix(23.4522,-21.7852,21.7852,23.4522,-6433.1,7064.67)">
                        <path d="M270.157,15.753C270.157,15.753 269.727,21.097 266.316,20.123C264.914,16.863 270.157,15.753 270.157,15.753Z" style="fill:white;fill-rule:nonzero;"/>
                        <path d="M270.157,15.753C270.157,15.753 269.727,21.097 266.316,20.123C264.914,16.863 270.157,15.753 270.157,15.753ZM269.978,15.956C269.461,16.09 268.101,16.499 267.163,17.295C266.422,17.924 265.951,18.803 266.431,19.993C267.671,20.317 268.482,19.737 269.011,18.921C269.68,17.888 269.911,16.487 269.978,15.956Z"/>
                    </g>
                </g>
                <g transform="matrix(0.999135,0.0415755,-0.0415755,0.999135,28.1345,-778.71)">
                    <g transform="matrix(40.934,-3.55271e-15,3.55271e-15,40.934,-7304.02,-14401.8)">
                        <path d="M182.585,393.354C182.965,393.778 183.453,393.992 183.861,394.099C184.262,394.206 184.566,394.212 184.566,394.212C184.566,394.212 184.865,394.164 185.248,394.018C185.627,393.871 186.11,393.63 186.469,393.259C186.619,393.103 186.736,392.934 186.827,392.766C187.016,392.449 187.113,392.133 187.161,391.894C187.183,391.774 187.204,391.674 187.215,391.604C187.225,391.533 187.228,391.494 187.228,391.494C187.228,391.494 186.925,391.496 186.523,391.587C186.116,391.68 185.629,391.866 185.251,392.243C185.092,392.401 184.967,392.582 184.867,392.766C184.704,393.096 184.625,393.442 184.585,393.711C184.542,393.98 184.567,394.172 184.565,394.206C184.567,394.172 184.537,393.982 184.489,393.715C184.437,393.448 184.339,393.106 184.16,392.766C184.069,392.576 183.952,392.386 183.801,392.208C183.444,391.787 182.964,391.52 182.586,391.357C182.203,391.197 181.904,391.146 181.904,391.146C181.904,391.146 181.9,391.197 181.898,391.288C181.896,391.379 181.895,391.508 181.915,391.66C181.95,391.969 182.028,392.376 182.199,392.766C182.299,392.972 182.426,393.173 182.585,393.354Z" style="fill:white;fill-rule:nonzero;"/>
                    </g>
                    <g transform="matrix(23.4522,-21.7852,21.7852,23.4522,-6433.1,7064.67)">
                        <path d="M270.157,15.753C270.157,15.753 269.727,21.097 266.316,20.123C264.914,16.863 270.157,15.753 270.157,15.753Z" style="fill:white;fill-rule:nonzero;"/>
                        <path d="M270.157,15.753C270.157,15.753 269.727,21.097 266.316,20.123C264.914,16.863 270.157,15.753 270.157,15.753ZM269.978,15.956C269.461,16.09 268.101,16.499 267.163,17.295C266.422,17.924 265.951,18.803 266.431,19.993C267.671,20.317 268.482,19.737 269.011,18.921C269.68,17.888 269.911,16.487 269.978,15.956Z"/>
                    </g>
                </g>
                <g transform="matrix(0.987447,-0.15795,0.15795,0.987447,-289.945,-589.212)">
                    <g transform="matrix(40.934,-3.55271e-15,3.55271e-15,40.934,-7304.02,-14401.8)">
                        <path d="M182.585,393.354C182.965,393.778 183.453,393.992 183.861,394.099C184.262,394.206 184.566,394.212 184.566,394.212C184.566,394.212 184.865,394.164 185.248,394.018C185.627,393.871 186.11,393.63 186.469,393.259C186.619,393.103 186.736,392.934 186.827,392.766C187.016,392.449 187.113,392.133 187.161,391.894C187.183,391.774 187.204,391.674 187.215,391.604C187.225,391.533 187.228,391.494 187.228,391.494C187.228,391.494 186.925,391.496 186.523,391.587C186.116,391.68 185.629,391.866 185.251,392.243C185.092,392.401 184.967,392.582 184.867,392.766C184.704,393.096 184.625,393.442 184.585,393.711C184.542,393.98 184.567,394.172 184.565,394.206C184.567,394.172 184.537,393.982 184.489,393.715C184.437,393.448 184.339,393.106 184.16,392.766C184.069,392.576 183.952,392.386 183.801,392.208C183.444,391.787 182.964,391.52 182.586,391.357C182.203,391.197 181.904,391.146 181.904,391.146C181.904,391.146 181.9,391.197 181.898,391.288C181.896,391.379 181.895,391.508 181.915,391.66C181.95,391.969 182.028,392.376 182.199,392.766C182.299,392.972 182.426,393.173 182.585,393.354Z" style="fill:white;fill-rule:nonzero;"/>
                    </g>
                    <g transform="matrix(23.4522,-21.7852,21.7852,23.4522,-6433.1,7064.67)">
                        <path d="M270.157,15.753C270.157,15.753 269.727,21.097 266.316,20.123C264.914,16.863 270.157,15.753 270.157,15.753Z" style="fill:white;fill-rule:nonzero;"/>
                        <path d="M270.157,15.753C270.157,15.753 269.727,21.097 266.316,20.123C264.914,16.863 270.157,15.753 270.157,15.753ZM269.978,15.956C269.461,16.09 268.101,16.499 267.163,17.295C266.422,17.924 265.951,18.803 266.431,19.993C267.671,20.317 268.482,19.737 269.011,18.921C269.68,17.888 269.911,16.487 269.978,15.956Z"/>
                    </g>
                </g>
                <g transform="matrix(0.936314,-0.351165,0.351165,0.936314,-563.006,-340.442)">
                    <g transform="matrix(40.934,-3.55271e-15,3.55271e-15,40.934,-7304.02,-14401.8)">
                        <path d="M182.585,393.354C182.965,393.778 183.453,393.992 183.861,394.099C184.262,394.206 184.566,394.212 184.566,394.212C184.566,394.212 184.865,394.164 185.248,394.018C185.627,393.871 186.11,393.63 186.469,393.259C186.619,393.103 186.736,392.934 186.827,392.766C187.016,392.449 187.113,392.133 187.161,391.894C187.183,391.774 187.204,391.674 187.215,391.604C187.225,391.533 187.228,391.494 187.228,391.494C187.228,391.494 186.925,391.496 186.523,391.587C186.116,391.68 185.629,391.866 185.251,392.243C185.092,392.401 184.967,392.582 184.867,392.766C184.704,393.096 184.625,393.442 184.585,393.711C184.542,393.98 184.567,394.172 184.565,394.206C184.567,394.172 184.537,393.982 184.489,393.715C184.437,393.448 184.339,393.106 184.16,392.766C184.069,392.576 183.952,392.386 183.801,392.208C183.444,391.787 182.964,391.52 182.586,391.357C182.203,391.197 181.904,391.146 181.904,391.146C181.904,391.146 181.9,391.197 181.898,391.288C181.896,391.379 181.895,391.508 181.915,391.66C181.95,391.969 182.028,392.376 182.199,392.766C182.299,392.972 182.426,393.173 182.585,393.354Z" style="fill:white;fill-rule:nonzero;"/>
                    </g>
                    <g transform="matrix(23.4522,-21.7852,21.7852,23.4522,-6433.1,7064.67)">
                        <path d="M270.157,15.753C270.157,15.753 269.727,21.097 266.316,20.123C264.914,16.863 270.157,15.753 270.157,15.753Z" style="fill:white;fill-rule:nonzero;"/>
                        <path d="M270.157,15.753C270.157,15.753 269.727,21.097 266.316,20.123C264.914,16.863 270.157,15.753 270.157,15.753ZM269.978,15.956C269.461,16.09 268.101,16.499 267.163,17.295C266.422,17.924 265.951,18.803 266.431,19.993C267.671,20.317 268.482,19.737 269.011,18.921C269.68,17.888 269.911,16.487 269.978,15.956Z"/>
                    </g>
                </g>
                <g transform="matrix(0.847777,-0.530353,0.530353,0.847777,-783.102,-41.9406)">
                    <g transform="matrix(40.934,-3.55271e-15,3.55271e-15,40.934,-7304.02,-14401.8)">
                        <path d="M182.585,393.354C182.965,393.778 183.453,393.992 183.861,394.099C184.262,394.206 184.566,394.212 184.566,394.212C184.566,394.212 184.865,394.164 185.248,394.018C185.627,393.871 186.11,393.63 186.469,393.259C186.619,393.103 186.736,392.934 186.827,392.766C187.016,392.449 187.113,392.133 187.161,391.894C187.183,391.774 187.204,391.674 187.215,391.604C187.225,391.533 187.228,391.494 187.228,391.494C187.228,391.494 186.925,391.496 186.523,391.587C186.116,391.68 185.629,391.866 185.251,392.243C185.092,392.401 184.967,392.582 184.867,392.766C184.704,393.096 184.625,393.442 184.585,393.711C184.542,393.98 184.567,394.172 184.565,394.206C184.567,394.172 184.537,393.982 184.489,393.715C184.437,393.448 184.339,393.106 184.16,392.766C184.069,392.576 183.952,392.386 183.801,392.208C183.444,391.787 182.964,391.52 182.586,391.357C182.203,391.197 181.904,391.146 181.904,391.146C181.904,391.146 181.9,391.197 181.898,391.288C181.896,391.379 181.895,391.508 181.915,391.66C181.95,391.969 182.028,392.376 182.199,392.766C182.299,392.972 182.426,393.173 182.585,393.354Z" style="fill:white;fill-rule:nonzero;"/>
                    </g>
                    <g transform="matrix(23.4522,-21.7852,21.7852,23.4522,-6433.1,7064.67)">
                        <path d="M270.157,15.753C270.157,15.753 269.727,21.097 266.316,20.123C264.914,16.863 270.157,15.753 270.157,15.753Z" style="fill:white;fill-rule:nonzero;"/>
                        <path d="M270.157,15.753C270.157,15.753 269.727,21.097 266.316,20.123C264.914,16.863 270.157,15.753 270.157,15.753ZM269.978,15.956C269.461,16.09 268.101,16.499 267.163,17.295C266.422,17.924 265.951,18.803 266.431,19.993C267.671,20.317 268.482,19.737 269.011,18.921C269.68,17.888 269.911,16.487 269.978,15.956Z"/>
                    </g>
                </g>
                <g transform="matrix(0.735963,-0.677022,0.677022,0.735963,-923.753,274.496)">
                    <g transform="matrix(40.934,-3.55271e-15,3.55271e-15,40.934,-7304.02,-14401.8)">
                        <path d="M182.585,393.354C182.965,393.778 183.453,393.992 183.861,394.099C184.262,394.206 184.566,394.212 184.566,394.212C184.566,394.212 184.865,394.164 185.248,394.018C185.627,393.871 186.11,393.63 186.469,393.259C186.619,393.103 186.736,392.934 186.827,392.766C187.016,392.449 187.113,392.133 187.161,391.894C187.183,391.774 187.204,391.674 187.215,391.604C187.225,391.533 187.228,391.494 187.228,391.494C187.228,391.494 186.925,391.496 186.523,391.587C186.116,391.68 185.629,391.866 185.251,392.243C185.092,392.401 184.967,392.582 184.867,392.766C184.704,393.096 184.625,393.442 184.585,393.711C184.542,393.98 184.567,394.172 184.565,394.206C184.567,394.172 184.537,393.982 184.489,393.715C184.437,393.448 184.339,393.106 184.16,392.766C184.069,392.576 183.952,392.386 183.801,392.208C183.444,391.787 182.964,391.52 182.586,391.357C182.203,391.197 181.904,391.146 181.904,391.146C181.904,391.146 181.9,391.197 181.898,391.288C181.896,391.379 181.895,391.508 181.915,391.66C181.95,391.969 182.028,392.376 182.199,392.766C182.299,392.972 182.426,393.173 182.585,393.354Z" style="fill:white;fill-rule:nonzero;"/>
                    </g>
                    <g transform="matrix(23.4522,-21.7852,21.7852,23.4522,-6433.1,7064.67)">
                        <path d="M270.157,15.753C270.157,15.753 269.727,21.097 266.316,20.123C264.914,16.863 270.157,15.753 270.157,15.753Z" style="fill:white;fill-rule:nonzero;"/>
                        <path d="M270.157,15.753C270.157,15.753 269.727,21.097 266.316,20.123C264.914,16.863 270.157,15.753 270.157,15.753ZM269.978,15.956C269.461,16.09 268.101,16.499 267.163,17.295C266.422,17.924 265.951,18.803 266.431,19.993C267.671,20.317 268.482,19.737 269.011,18.921C269.68,17.888 269.911,16.487 269.978,15.956Z"/>
                    </g>
                </g>
                <g transform="matrix(0.667162,-0.744912,0.744912,0.667162,-930.333,473.989)">
                    <g transform="matrix(40.934,-3.55271e-15,3.55271e-15,40.934,-7304.02,-14401.8)">
                        <path d="M182.585,393.354C182.965,393.778 183.453,393.992 183.861,394.099C184.262,394.206 184.566,394.212 184.566,394.212C184.566,394.212 184.865,394.164 185.248,394.018C185.627,393.871 186.11,393.63 186.469,393.259C186.619,393.103 186.736,392.934 186.827,392.766C187.016,392.449 187.113,392.133 187.161,391.894C187.183,391.774 187.204,391.674 187.215,391.604C187.225,391.533 187.228,391.494 187.228,391.494C187.228,391.494 186.925,391.496 186.523,391.587C186.116,391.68 185.629,391.866 185.251,392.243C185.092,392.401 184.967,392.582 184.867,392.766C184.704,393.096 184.625,393.442 184.585,393.711C184.542,393.98 184.567,394.172 184.565,394.206C184.567,394.172 184.537,393.982 184.489,393.715C184.437,393.448 184.339,393.106 184.16,392.766C184.069,392.576 183.952,392.386 183.801,392.208C183.444,391.787 182.964,391.52 182.586,391.357C182.203,391.197 181.904,391.146 181.904,391.146C181.904,391.146 181.9,391.197 181.898,391.288C181.896,391.379 181.895,391.508 181.915,391.66C181.95,391.969 182.028,392.376 182.199,392.766C182.299,392.972 182.426,393.173 182.585,393.354Z" style="fill:white;fill-rule:nonzero;"/>
                    </g>
                    <g transform="matrix(23.4522,-21.7852,21.7852,23.4522,-6433.1,7064.67)">
                        <path d="M270.157,15.753C270.157,15.753 269.727,21.097 266.316,20.123C264.914,16.863 270.157,15.753 270.157,15.753Z" style="fill:white;fill-rule:nonzero;"/>
                        <path d="M270.157,15.753C270.157,15.753 269.727,21.097 266.316,20.123C264.914,16.863 270.157,15.753 270.157,15.753ZM269.978,15.956C269.461,16.09 268.101,16.499 267.163,17.295C266.422,17.924 265.951,18.803 266.431,19.993C267.671,20.317 268.482,19.737 269.011,18.921C269.68,17.888 269.911,16.487 269.978,15.956Z"/>
                    </g>
                </g>
                <g>
                    <g transform="matrix(20.467,-35.4499,35.4499,20.467,-17123,-38.2224)">
                        <path d="M182.585,393.354C182.965,393.778 183.453,393.992 183.861,394.099C184.262,394.206 184.566,394.212 184.566,394.212C184.566,394.212 184.865,394.164 185.248,394.018C185.627,393.871 186.11,393.63 186.469,393.259C186.619,393.103 186.736,392.934 186.827,392.766C187.016,392.449 187.113,392.133 187.161,391.894C187.183,391.774 187.204,391.674 187.215,391.604C187.225,391.533 187.228,391.494 187.228,391.494C187.228,391.494 186.925,391.496 186.523,391.587C186.116,391.68 185.629,391.866 185.251,392.243C185.092,392.401 184.967,392.582 184.867,392.766C184.704,393.096 184.625,393.442 184.585,393.711C184.542,393.98 184.567,394.172 184.565,394.206C184.567,394.172 184.537,393.982 184.489,393.715C184.437,393.448 184.339,393.106 184.16,392.766C184.069,392.576 183.952,392.386 183.801,392.208C183.444,391.787 182.964,391.52 182.586,391.357C182.203,391.197 181.904,391.146 181.904,391.146C181.904,391.146 181.9,391.197 181.898,391.288C181.896,391.379 181.895,391.508 181.915,391.66C181.95,391.969 182.028,392.376 182.199,392.766C182.299,392.972 182.426,393.173 182.585,393.354Z" style="fill:white;fill-rule:nonzero;"/>
                    </g>
                    <g transform="matrix(-7.06597,-31.2198,31.2198,-7.06597,1882.79,9943.8)">
                        <path d="M270.157,15.753C270.157,15.753 269.727,21.097 266.316,20.123C264.914,16.863 270.157,15.753 270.157,15.753Z" style="fill:white;fill-rule:nonzero;"/>
                        <path d="M270.157,15.753C270.157,15.753 269.727,21.097 266.316,20.123C264.914,16.863 270.157,15.753 270.157,15.753ZM269.978,15.956C269.461,16.09 268.101,16.499 267.163,17.295C266.422,17.924 265.951,18.803 266.431,19.993C267.671,20.317 268.482,19.737 269.011,18.921C269.68,17.888 269.911,16.487 269.978,15.956Z"/>
                    </g>
                </g>
            </g>
            <g transform="matrix(-1,0,0,1,1913.45,1.13687e-13)">
                <path d="M1151.34,1781.81C1015.74,1682.24 808.94,1555.4 621.422,1486.03C10.932,1260.16 46.613,345.018 846.841,183.749" style="fill:none;stroke:white;stroke-width:20.37px;"/>
                <g transform="matrix(0.226663,0.973973,-0.973973,0.226663,2348.73,-418.452)">
                    <g transform="matrix(40.934,-3.55271e-15,3.55271e-15,40.934,-7304.02,-14401.8)">
                        <path d="M182.585,393.354C182.965,393.778 183.453,393.992 183.861,394.099C184.262,394.206 184.566,394.212 184.566,394.212C184.566,394.212 184.865,394.164 185.248,394.018C185.627,393.871 186.11,393.63 186.469,393.259C186.619,393.103 186.736,392.934 186.827,392.766C187.016,392.449 187.113,392.133 187.161,391.894C187.183,391.774 187.204,391.674 187.215,391.604C187.225,391.533 187.228,391.494 187.228,391.494C187.228,391.494 186.925,391.496 186.523,391.587C186.116,391.68 185.629,391.866 185.251,392.243C185.092,392.401 184.967,392.582 184.867,392.766C184.704,393.096 184.625,393.442 184.585,393.711C184.542,393.98 184.567,394.172 184.565,394.206C184.567,394.172 184.537,393.982 184.489,393.715C184.437,393.448 184.339,393.106 184.16,392.766C184.069,392.576 183.952,392.386 183.801,392.208C183.444,391.787 182.964,391.52 182.586,391.357C182.203,391.197 181.904,391.146 181.904,391.146C181.904,391.146 181.9,391.197 181.898,391.288C181.896,391.379 181.895,391.508 181.915,391.66C181.95,391.969 182.028,392.376 182.199,392.766C182.299,392.972 182.426,393.173 182.585,393.354Z" style="fill:white;fill-rule:nonzero;"/>
                    </g>
                    <g transform="matrix(23.4522,-21.7852,21.7852,23.4522,-6433.1,7064.67)">
                        <path d="M270.157,15.753C270.157,15.753 269.727,21.097 266.316,20.123C264.914,16.863 270.157,15.753 270.157,15.753Z" style="fill:white;fill-rule:nonzero;"/>
                        <path d="M270.157,15.753C270.157,15.753 264.914,16.863 266.316,20.123C269.727,21.097 270.157,15.753 270.157,15.753ZM269.978,15.956C269.911,16.487 269.68,17.888 269.011,18.921C268.482,19.737 267.671,20.317 266.43,19.992C265.951,18.803 266.422,17.924 267.163,17.295C268.101,16.499 269.461,16.09 269.978,15.956Z"/>
                    </g>
                </g>
                <g transform="matrix(0.364814,0.931081,-0.931081,0.364814,2128.19,-598.317)">
                    <g transform="matrix(40.934,-3.55271e-15,3.55271e-15,40.934,-7304.02,-14401.8)">
                        <path d="M182.585,393.354C182.965,393.778 183.453,393.992 183.861,394.099C184.262,394.206 184.566,394.212 184.566,394.212C184.566,394.212 184.865,394.164 185.248,394.018C185.627,393.871 186.11,393.63 186.469,393.259C186.619,393.103 186.736,392.934 186.827,392.766C187.016,392.449 187.113,392.133 187.161,391.894C187.183,391.774 187.204,391.674 187.215,391.604C187.225,391.533 187.228,391.494 187.228,391.494C187.228,391.494 186.925,391.496 186.523,391.587C186.116,391.68 185.629,391.866 185.251,392.243C185.092,392.401 184.967,392.582 184.867,392.766C184.704,393.096 184.625,393.442 184.585,393.711C184.542,393.98 184.567,394.172 184.565,394.206C184.567,394.172 184.537,393.982 184.489,393.715C184.437,393.448 184.339,393.106 184.16,392.766C184.069,392.576 183.952,392.386 183.801,392.208C183.444,391.787 182.964,391.52 182.586,391.357C182.203,391.197 181.904,391.146 181.904,391.146C181.904,391.146 181.9,391.197 181.898,391.288C181.896,391.379 181.895,391.508 181.915,391.66C181.95,391.969 182.028,392.376 182.199,392.766C182.299,392.972 182.426,393.173 182.585,393.354Z" style="fill:white;fill-rule:nonzero;"/>
                    </g>
                    <g transform="matrix(23.4522,-21.7852,21.7852,23.4522,-6433.1,7064.67)">
                        <path d="M270.157,15.753C270.157,15.753 269.727,21.097 266.316,20.123C264.914,16.863 270.157,15.753 270.157,15.753Z" style="fill:white;fill-rule:nonzero;"/>
                        <path d="M270.157,15.753C270.157,15.753 264.914,16.863 266.316,20.123C269.727,21.097 270.157,15.753 270.157,15.753ZM269.978,15.956C269.911,16.487 269.68,17.888 269.011,18.921C268.482,19.737 267.671,20.317 266.43,19.992C265.951,18.803 266.422,17.924 267.163,17.295C268.101,16.499 269.461,16.09 269.978,15.956Z"/>
                    </g>
                </g>
                <g transform="matrix(0.495331,0.868705,-0.868705,0.495331,1884,-744.481)">
                    <g transform="matrix(40.934,-3.55271e-15,3.55271e-15,40.934,-7304.02,-14401.8)">
                        <path d="M182.585,393.354C182.965,393.778 183.453,393.992 183.861,394.099C184.262,394.206 184.566,394.212 184.566,394.212C184.566,394.212 184.865,394.164 185.248,394.018C185.627,393.871 186.11,393.63 186.469,393.259C186.619,393.103 186.736,392.934 186.827,392.766C187.016,392.449 187.113,392.133 187.161,391.894C187.183,391.774 187.204,391.674 187.215,391.604C187.225,391.533 187.228,391.494 187.228,391.494C187.228,391.494 186.925,391.496 186.523,391.587C186.116,391.68 185.629,391.866 185.251,392.243C185.092,392.401 184.967,392.582 184.867,392.766C184.704,393.096 184.625,393.442 184.585,393.711C184.542,393.98 184.567,394.172 184.565,394.206C184.567,394.172 184.537,393.982 184.489,393.715C184.437,393.448 184.339,393.106 184.16,392.766C184.069,392.576 183.952,392.386 183.801,392.208C183.444,391.787 182.964,391.52 182.586,391.357C182.203,391.197 181.904,391.146 181.904,391.146C181.904,391.146 181.9,391.197 181.898,391.288C181.896,391.379 181.895,391.508 181.915,391.66C181.95,391.969 182.028,392.376 182.199,392.766C182.299,392.972 182.426,393.173 182.585,393.354Z" style="fill:white;fill-rule:nonzero;"/>
                    </g>
                    <g transform="matrix(23.4522,-21.7852,21.7852,23.4522,-6433.1,7064.67)">
                        <path d="M270.157,15.753C270.157,15.753 269.727,21.097 266.316,20.123C264.914,16.863 270.157,15.753 270.157,15.753Z" style="fill:white;fill-rule:nonzero;"/>
                        <path d="M270.157,15.753C270.157,15.753 264.914,16.863 266.316,20.123C269.727,21.097 270.157,15.753 270.157,15.753ZM269.978,15.956C269.911,16.487 269.68,17.888 269.011,18.921C268.482,19.737 267.671,20.317 266.43,19.992C265.951,18.803 266.422,17.924 267.163,17.295C268.101,16.499 269.461,16.09 269.978,15.956Z"/>
                    </g>
                </g>
                <g transform="matrix(0.607675,0.794186,-0.794186,0.607675,1632.94,-842.773)">
                    <g transform="matrix(40.934,-3.55271e-15,3.55271e-15,40.934,-7304.02,-14401.8)">
                        <path d="M182.585,393.354C182.965,393.778 183.453,393.992 183.861,394.099C184.262,394.206 184.566,394.212 184.566,394.212C184.566,394.212 184.865,394.164 185.248,394.018C185.627,393.871 186.11,393.63 186.469,393.259C186.619,393.103 186.736,392.934 186.827,392.766C187.016,392.449 187.113,392.133 187.161,391.894C187.183,391.774 187.204,391.674 187.215,391.604C187.225,391.533 187.228,391.494 187.228,391.494C187.228,391.494 186.925,391.496 186.523,391.587C186.116,391.68 185.629,391.866 185.251,392.243C185.092,392.401 184.967,392.582 184.867,392.766C184.704,393.096 184.625,393.442 184.585,393.711C184.542,393.98 184.567,394.172 184.565,394.206C184.567,394.172 184.537,393.982 184.489,393.715C184.437,393.448 184.339,393.106 184.16,392.766C184.069,392.576 183.952,392.386 183.801,392.208C183.444,391.787 182.964,391.52 182.586,391.357C182.203,391.197 181.904,391.146 181.904,391.146C181.904,391.146 181.9,391.197 181.898,391.288C181.896,391.379 181.895,391.508 181.915,391.66C181.95,391.969 182.028,392.376 182.199,392.766C182.299,392.972 182.426,393.173 182.585,393.354Z" style="fill:white;fill-rule:nonzero;"/>
                    </g>
                    <g transform="matrix(23.4522,-21.7852,21.7852,23.4522,-6433.1,7064.67)">
                        <path d="M270.157,15.753C270.157,15.753 269.727,21.097 266.316,20.123C264.914,16.863 270.157,15.753 270.157,15.753Z" style="fill:white;fill-rule:nonzero;"/>
                        <path d="M270.157,15.753C270.157,15.753 264.914,16.863 266.316,20.123C269.727,21.097 270.157,15.753 270.157,15.753ZM269.978,15.956C269.911,16.487 269.68,17.888 269.011,18.921C268.482,19.737 267.671,20.317 266.43,19.992C265.951,18.803 266.422,17.924 267.163,17.295C268.101,16.499 269.461,16.09 269.978,15.956Z"/>
                    </g>
                </g>
                <g transform="matrix(0.73939,0.673278,-0.673278,0.73939,1311.91,-947.611)">
                    <g transform="matrix(40.934,-3.55271e-15,3.55271e-15,40.934,-7304.02,-14401.8)">
                        <path d="M182.585,393.354C182.965,393.778 183.453,393.992 183.861,394.099C184.262,394.206 184.566,394.212 184.566,394.212C184.566,394.212 184.865,394.164 185.248,394.018C185.627,393.871 186.11,393.63 186.469,393.259C186.619,393.103 186.736,392.934 186.827,392.766C187.016,392.449 187.113,392.133 187.161,391.894C187.183,391.774 187.204,391.674 187.215,391.604C187.225,391.533 187.228,391.494 187.228,391.494C187.228,391.494 186.925,391.496 186.523,391.587C186.116,391.68 185.629,391.866 185.251,392.243C185.092,392.401 184.967,392.582 184.867,392.766C184.704,393.096 184.625,393.442 184.585,393.711C184.542,393.98 184.567,394.172 184.565,394.206C184.567,394.172 184.537,393.982 184.489,393.715C184.437,393.448 184.339,393.106 184.16,392.766C184.069,392.576 183.952,392.386 183.801,392.208C183.444,391.787 182.964,391.52 182.586,391.357C182.203,391.197 181.904,391.146 181.904,391.146C181.904,391.146 181.9,391.197 181.898,391.288C181.896,391.379 181.895,391.508 181.915,391.66C181.95,391.969 182.028,392.376 182.199,392.766C182.299,392.972 182.426,393.173 182.585,393.354Z" style="fill:white;fill-rule:nonzero;"/>
                    </g>
                    <g transform="matrix(23.4522,-21.7852,21.7852,23.4522,-6433.1,7064.67)">
                        <path d="M270.157,15.753C270.157,15.753 269.727,21.097 266.316,20.123C264.914,16.863 270.157,15.753 270.157,15.753Z" style="fill:white;fill-rule:nonzero;"/>
                        <path d="M270.157,15.753C270.157,15.753 264.914,16.863 266.316,20.123C269.727,21.097 270.157,15.753 270.157,15.753ZM269.978,15.956C269.911,16.487 269.68,17.888 269.011,18.921C268.482,19.737 267.671,20.317 266.43,19.992C265.951,18.803 266.422,17.924 267.163,17.295C268.101,16.499 269.461,16.09 269.978,15.956Z"/>
                    </g>
                </g>
                <g transform="matrix(0.83253,0.55398,-0.55398,0.83253,1018.33,-975.194)">
                    <g transform="matrix(40.934,-3.55271e-15,3.55271e-15,40.934,-7304.02,-14401.8)">
                        <path d="M182.585,393.354C182.965,393.778 183.453,393.992 183.861,394.099C184.262,394.206 184.566,394.212 184.566,394.212C184.566,394.212 184.865,394.164 185.248,394.018C185.627,393.871 186.11,393.63 186.469,393.259C186.619,393.103 186.736,392.934 186.827,392.766C187.016,392.449 187.113,392.133 187.161,391.894C187.183,391.774 187.204,391.674 187.215,391.604C187.225,391.533 187.228,391.494 187.228,391.494C187.228,391.494 186.925,391.496 186.523,391.587C186.116,391.68 185.629,391.866 185.251,392.243C185.092,392.401 184.967,392.582 184.867,392.766C184.704,393.096 184.625,393.442 184.585,393.711C184.542,393.98 184.567,394.172 184.565,394.206C184.567,394.172 184.537,393.982 184.489,393.715C184.437,393.448 184.339,393.106 184.16,392.766C184.069,392.576 183.952,392.386 183.801,392.208C183.444,391.787 182.964,391.52 182.586,391.357C182.203,391.197 181.904,391.146 181.904,391.146C181.904,391.146 181.9,391.197 181.898,391.288C181.896,391.379 181.895,391.508 181.915,391.66C181.95,391.969 182.028,392.376 182.199,392.766C182.299,392.972 182.426,393.173 182.585,393.354Z" style="fill:white;fill-rule:nonzero;"/>
                    </g>
                    <g transform="matrix(23.4522,-21.7852,21.7852,23.4522,-6433.1,7064.67)">
                        <path d="M270.157,15.753C270.157,15.753 269.727,21.097 266.316,20.123C264.914,16.863 270.157,15.753 270.157,15.753Z" style="fill:white;fill-rule:nonzero;"/>
                        <path d="M270.157,15.753C270.157,15.753 264.914,16.863 266.316,20.123C269.727,21.097 270.157,15.753 270.157,15.753ZM269.978,15.956C269.911,16.487 269.68,17.888 269.011,18.921C268.482,19.737 267.671,20.317 266.43,19.992C265.951,18.803 266.422,17.924 267.163,17.295C268.101,16.499 269.461,16.09 269.978,15.956Z"/>
                    </g>
                </g>
                <g transform="matrix(0.929042,0.369975,-0.369975,0.929042,634.521,-981.57)">
                    <g transform="matrix(40.934,-3.55271e-15,3.55271e-15,40.934,-7304.02,-14401.8)">
                        <path d="M182.585,393.354C182.965,393.778 183.453,393.992 183.861,394.099C184.262,394.206 184.566,394.212 184.566,394.212C184.566,394.212 184.865,394.164 185.248,394.018C185.627,393.871 186.11,393.63 186.469,393.259C186.619,393.103 186.736,392.934 186.827,392.766C187.016,392.449 187.113,392.133 187.161,391.894C187.183,391.774 187.204,391.674 187.215,391.604C187.225,391.533 187.228,391.494 187.228,391.494C187.228,391.494 186.925,391.496 186.523,391.587C186.116,391.68 185.629,391.866 185.251,392.243C185.092,392.401 184.967,392.582 184.867,392.766C184.704,393.096 184.625,393.442 184.585,393.711C184.542,393.98 184.567,394.172 184.565,394.206C184.567,394.172 184.537,393.982 184.489,393.715C184.437,393.448 184.339,393.106 184.16,392.766C184.069,392.576 183.952,392.386 183.801,392.208C183.444,391.787 182.964,391.52 182.586,391.357C182.203,391.197 181.904,391.146 181.904,391.146C181.904,391.146 181.9,391.197 181.898,391.288C181.896,391.379 181.895,391.508 181.915,391.66C181.95,391.969 182.028,392.376 182.199,392.766C182.299,392.972 182.426,393.173 182.585,393.354Z" style="fill:white;fill-rule:nonzero;"/>
                    </g>
                    <g transform="matrix(23.4522,-21.7852,21.7852,23.4522,-6433.1,7064.67)">
                        <path d="M270.157,15.753C270.157,15.753 269.727,21.097 266.316,20.123C264.914,16.863 270.157,15.753 270.157,15.753Z" style="fill:white;fill-rule:nonzero;"/>
                        <path d="M270.157,15.753C270.157,15.753 264.914,16.863 266.316,20.123C269.727,21.097 270.157,15.753 270.157,15.753ZM269.978,15.956C269.911,16.487 269.68,17.888 269.011,18.921C268.482,19.737 267.671,20.317 266.43,19.992C265.951,18.803 266.422,17.924 267.163,17.295C268.101,16.499 269.461,16.09 269.978,15.956Z"/>
                    </g>
                </g>
                <g transform="matrix(0.980498,0.19653,-0.19653,0.980498,301.698,-907.035)">
                    <g transform="matrix(40.934,-3.55271e-15,3.55271e-15,40.934,-7304.02,-14401.8)">
                        <path d="M182.585,393.354C182.965,393.778 183.453,393.992 183.861,394.099C184.262,394.206 184.566,394.212 184.566,394.212C184.566,394.212 184.865,394.164 185.248,394.018C185.627,393.871 186.11,393.63 186.469,393.259C186.619,393.103 186.736,392.934 186.827,392.766C187.016,392.449 187.113,392.133 187.161,391.894C187.183,391.774 187.204,391.674 187.215,391.604C187.225,391.533 187.228,391.494 187.228,391.494C187.228,391.494 186.925,391.496 186.523,391.587C186.116,391.68 185.629,391.866 185.251,392.243C185.092,392.401 184.967,392.582 184.867,392.766C184.704,393.096 184.625,393.442 184.585,393.711C184.542,393.98 184.567,394.172 184.565,394.206C184.567,394.172 184.537,393.982 184.489,393.715C184.437,393.448 184.339,393.106 184.16,392.766C184.069,392.576 183.952,392.386 183.801,392.208C183.444,391.787 182.964,391.52 182.586,391.357C182.203,391.197 181.904,391.146 181.904,391.146C181.904,391.146 181.9,391.197 181.898,391.288C181.896,391.379 181.895,391.508 181.915,391.66C181.95,391.969 182.028,392.376 182.199,392.766C182.299,392.972 182.426,393.173 182.585,393.354Z" style="fill:white;fill-rule:nonzero;"/>
                    </g>
                    <g transform="matrix(23.4522,-21.7852,21.7852,23.4522,-6433.1,7064.67)">
                        <path d="M270.157,15.753C270.157,15.753 269.727,21.097 266.316,20.123C264.914,16.863 270.157,15.753 270.157,15.753Z" style="fill:white;fill-rule:nonzero;"/>
                        <path d="M270.157,15.753C270.157,15.753 264.914,16.863 266.316,20.123C269.727,21.097 270.157,15.753 270.157,15.753ZM269.978,15.956C269.911,16.487 269.68,17.888 269.011,18.921C268.482,19.737 267.671,20.317 266.43,19.992C265.951,18.803 266.422,17.924 267.163,17.295C268.101,16.499 269.461,16.09 269.978,15.956Z"/>
                    </g>
                </g>
                <g transform="matrix(0.999135,0.0415755,-0.0415755,0.999135,28.1345,-778.71)">
                    <g transform="matrix(40.934,-3.55271e-15,3.55271e-15,40.934,-7304.02,-14401.8)">
                        <path d="M182.585,393.354C182.965,393.778 183.453,393.992 183.861,394.099C184.262,394.206 184.566,394.212 184.566,394.212C184.566,394.212 184.865,394.164 185.248,394.018C185.627,393.871 186.11,393.63 186.469,393.259C186.619,393.103 186.736,392.934 186.827,392.766C187.016,392.449 187.113,392.133 187.161,391.894C187.183,391.774 187.204,391.674 187.215,391.604C187.225,391.533 187.228,391.494 187.228,391.494C187.228,391.494 186.925,391.496 186.523,391.587C186.116,391.68 185.629,391.866 185.251,392.243C185.092,392.401 184.967,392.582 184.867,392.766C184.704,393.096 184.625,393.442 184.585,393.711C184.542,393.98 184.567,394.172 184.565,394.206C184.567,394.172 184.537,393.982 184.489,393.715C184.437,393.448 184.339,393.106 184.16,392.766C184.069,392.576 183.952,392.386 183.801,392.208C183.444,391.787 182.964,391.52 182.586,391.357C182.203,391.197 181.904,391.146 181.904,391.146C181.904,391.146 181.9,391.197 181.898,391.288C181.896,391.379 181.895,391.508 181.915,391.66C181.95,391.969 182.028,392.376 182.199,392.766C182.299,392.972 182.426,393.173 182.585,393.354Z" style="fill:white;fill-rule:nonzero;"/>
                    </g>
                    <g transform="matrix(23.4522,-21.7852,21.7852,23.4522,-6433.1,7064.67)">
                        <path d="M270.157,15.753C270.157,15.753 269.727,21.097 266.316,20.123C264.914,16.863 270.157,15.753 270.157,15.753Z" style="fill:white;fill-rule:nonzero;"/>
                        <path d="M270.157,15.753C270.157,15.753 264.914,16.863 266.316,20.123C269.727,21.097 270.157,15.753 270.157,15.753ZM269.978,15.956C269.911,16.487 269.68,17.888 269.011,18.921C268.482,19.737 267.671,20.317 266.43,19.992C265.951,18.803 266.422,17.924 267.163,17.295C268.101,16.499 269.461,16.09 269.978,15.956Z"/>
                    </g>
                </g>
                <g transform="matrix(0.987447,-0.15795,0.15795,0.987447,-289.945,-589.212)">
                    <g transform="matrix(40.934,-3.55271e-15,3.55271e-15,40.934,-7304.02,-14401.8)">
                        <path d="M182.585,393.354C182.965,393.778 183.453,393.992 183.861,394.099C184.262,394.206 184.566,394.212 184.566,394.212C184.566,394.212 184.865,394.164 185.248,394.018C185.627,393.871 186.11,393.63 186.469,393.259C186.619,393.103 186.736,392.934 186.827,392.766C187.016,392.449 187.113,392.133 187.161,391.894C187.183,391.774 187.204,391.674 187.215,391.604C187.225,391.533 187.228,391.494 187.228,391.494C187.228,391.494 186.925,391.496 186.523,391.587C186.116,391.68 185.629,391.866 185.251,392.243C185.092,392.401 184.967,392.582 184.867,392.766C184.704,393.096 184.625,393.442 184.585,393.711C184.542,393.98 184.567,394.172 184.565,394.206C184.567,394.172 184.537,393.982 184.489,393.715C184.437,393.448 184.339,393.106 184.16,392.766C184.069,392.576 183.952,392.386 183.801,392.208C183.444,391.787 182.964,391.52 182.586,391.357C182.203,391.197 181.904,391.146 181.904,391.146C181.904,391.146 181.9,391.197 181.898,391.288C181.896,391.379 181.895,391.508 181.915,391.66C181.95,391.969 182.028,392.376 182.199,392.766C182.299,392.972 182.426,393.173 182.585,393.354Z" style="fill:white;fill-rule:nonzero;"/>
                    </g>
                    <g transform="matrix(23.4522,-21.7852,21.7852,23.4522,-6433.1,7064.67)">
                        <path d="M270.157,15.753C270.157,15.753 269.727,21.097 266.316,20.123C264.914,16.863 270.157,15.753 270.157,15.753Z" style="fill:white;fill-rule:nonzero;"/>
                        <path d="M270.157,15.753C270.157,15.753 264.914,16.863 266.316,20.123C269.727,21.097 270.157,15.753 270.157,15.753ZM269.978,15.956C269.911,16.487 269.68,17.888 269.011,18.921C268.482,19.737 267.671,20.317 266.43,19.992C265.951,18.803 266.422,17.924 267.163,17.295C268.101,16.499 269.461,16.09 269.978,15.956Z"/>
                    </g>
                </g>
                <g transform="matrix(0.936314,-0.351165,0.351165,0.936314,-563.006,-340.442)">
                    <g transform="matrix(40.934,-3.55271e-15,3.55271e-15,40.934,-7304.02,-14401.8)">
                        <path d="M182.585,393.354C182.965,393.778 183.453,393.992 183.861,394.099C184.262,394.206 184.566,394.212 184.566,394.212C184.566,394.212 184.865,394.164 185.248,394.018C185.627,393.871 186.11,393.63 186.469,393.259C186.619,393.103 186.736,392.934 186.827,392.766C187.016,392.449 187.113,392.133 187.161,391.894C187.183,391.774 187.204,391.674 187.215,391.604C187.225,391.533 187.228,391.494 187.228,391.494C187.228,391.494 186.925,391.496 186.523,391.587C186.116,391.68 185.629,391.866 185.251,392.243C185.092,392.401 184.967,392.582 184.867,392.766C184.704,393.096 184.625,393.442 184.585,393.711C184.542,393.98 184.567,394.172 184.565,394.206C184.567,394.172 184.537,393.982 184.489,393.715C184.437,393.448 184.339,393.106 184.16,392.766C184.069,392.576 183.952,392.386 183.801,392.208C183.444,391.787 182.964,391.52 182.586,391.357C182.203,391.197 181.904,391.146 181.904,391.146C181.904,391.146 181.9,391.197 181.898,391.288C181.896,391.379 181.895,391.508 181.915,391.66C181.95,391.969 182.028,392.376 182.199,392.766C182.299,392.972 182.426,393.173 182.585,393.354Z" style="fill:white;fill-rule:nonzero;"/>
                    </g>
                    <g transform="matrix(23.4522,-21.7852,21.7852,23.4522,-6433.1,7064.67)">
                        <path d="M270.157,15.753C270.157,15.753 269.727,21.097 266.316,20.123C264.914,16.863 270.157,15.753 270.157,15.753Z" style="fill:white;fill-rule:nonzero;"/>
                        <path d="M270.157,15.753C270.157,15.753 264.914,16.863 266.316,20.123C269.727,21.097 270.157,15.753 270.157,15.753ZM269.978,15.956C269.911,16.487 269.68,17.888 269.011,18.921C268.482,19.737 267.671,20.317 266.43,19.992C265.951,18.803 266.422,17.924 267.163,17.295C268.101,16.499 269.461,16.09 269.978,15.956Z"/>
                    </g>
                </g>
                <g transform="matrix(0.847777,-0.530353,0.530353,0.847777,-783.102,-41.9406)">
                    <g transform="matrix(40.934,-3.55271e-15,3.55271e-15,40.934,-7304.02,-14401.8)">
                        <path d="M182.585,393.354C182.965,393.778 183.453,393.992 183.861,394.099C184.262,394.206 184.566,394.212 184.566,394.212C184.566,394.212 184.865,394.164 185.248,394.018C185.627,393.871 186.11,393.63 186.469,393.259C186.619,393.103 186.736,392.934 186.827,392.766C187.016,392.449 187.113,392.133 187.161,391.894C187.183,391.774 187.204,391.674 187.215,391.604C187.225,391.533 187.228,391.494 187.228,391.494C187.228,391.494 186.925,391.496 186.523,391.587C186.116,391.68 185.629,391.866 185.251,392.243C185.092,392.401 184.967,392.582 184.867,392.766C184.704,393.096 184.625,393.442 184.585,393.711C184.542,393.98 184.567,394.172 184.565,394.206C184.567,394.172 184.537,393.982 184.489,393.715C184.437,393.448 184.339,393.106 184.16,392.766C184.069,392.576 183.952,392.386 183.801,392.208C183.444,391.787 182.964,391.52 182.586,391.357C182.203,391.197 181.904,391.146 181.904,391.146C181.904,391.146 181.9,391.197 181.898,391.288C181.896,391.379 181.895,391.508 181.915,391.66C181.95,391.969 182.028,392.376 182.199,392.766C182.299,392.972 182.426,393.173 182.585,393.354Z" style="fill:white;fill-rule:nonzero;"/>
                    </g>
                    <g transform="matrix(23.4522,-21.7852,21.7852,23.4522,-6433.1,7064.67)">
                        <path d="M270.157,15.753C270.157,15.753 269.727,21.097 266.316,20.123C264.914,16.863 270.157,15.753 270.157,15.753Z" style="fill:white;fill-rule:nonzero;"/>
                        <path d="M270.157,15.753C270.157,15.753 264.914,16.863 266.316,20.123C269.727,21.097 270.157,15.753 270.157,15.753ZM269.978,15.956C269.911,16.487 269.68,17.888 269.011,18.921C268.482,19.737 267.671,20.317 266.43,19.992C265.951,18.803 266.422,17.924 267.163,17.295C268.101,16.499 269.461,16.09 269.978,15.956Z"/>
                    </g>
                </g>
                <g transform="matrix(0.735963,-0.677022,0.677022,0.735963,-923.753,274.496)">
                    <g transform="matrix(40.934,-3.55271e-15,3.55271e-15,40.934,-7304.02,-14401.8)">
                        <path d="M182.585,393.354C182.965,393.778 183.453,393.992 183.861,394.099C184.262,394.206 184.566,394.212 184.566,394.212C184.566,394.212 184.865,394.164 185.248,394.018C185.627,393.871 186.11,393.63 186.469,393.259C186.619,393.103 186.736,392.934 186.827,392.766C187.016,392.449 187.113,392.133 187.161,391.894C187.183,391.774 187.204,391.674 187.215,391.604C187.225,391.533 187.228,391.494 187.228,391.494C187.228,391.494 186.925,391.496 186.523,391.587C186.116,391.68 185.629,391.866 185.251,392.243C185.092,392.401 184.967,392.582 184.867,392.766C184.704,393.096 184.625,393.442 184.585,393.711C184.542,393.98 184.567,394.172 184.565,394.206C184.567,394.172 184.537,393.982 184.489,393.715C184.437,393.448 184.339,393.106 184.16,392.766C184.069,392.576 183.952,392.386 183.801,392.208C183.444,391.787 182.964,391.52 182.586,391.357C182.203,391.197 181.904,391.146 181.904,391.146C181.904,391.146 181.9,391.197 181.898,391.288C181.896,391.379 181.895,391.508 181.915,391.66C181.95,391.969 182.028,392.376 182.199,392.766C182.299,392.972 182.426,393.173 182.585,393.354Z" style="fill:white;fill-rule:nonzero;"/>
                    </g>
                    <g transform="matrix(23.4522,-21.7852,21.7852,23.4522,-6433.1,7064.67)">
                        <path d="M270.157,15.753C270.157,15.753 269.727,21.097 266.316,20.123C264.914,16.863 270.157,15.753 270.157,15.753Z" style="fill:white;fill-rule:nonzero;"/>
                        <path d="M270.157,15.753C270.157,15.753 264.914,16.863 266.316,20.123C269.727,21.097 270.157,15.753 270.157,15.753ZM269.978,15.956C269.911,16.487 269.68,17.888 269.011,18.921C268.482,19.737 267.671,20.317 266.43,19.992C265.951,18.803 266.422,17.924 267.163,17.295C268.101,16.499 269.461,16.09 269.978,15.956Z"/>
                    </g>
                </g>
                <g transform="matrix(0.667162,-0.744912,0.744912,0.667162,-930.333,473.989)">
                    <g transform="matrix(40.934,-3.55271e-15,3.55271e-15,40.934,-7304.02,-14401.8)">
                        <path d="M182.585,393.354C182.965,393.778 183.453,393.992 183.861,394.099C184.262,394.206 184.566,394.212 184.566,394.212C184.566,394.212 184.865,394.164 185.248,394.018C185.627,393.871 186.11,393.63 186.469,393.259C186.619,393.103 186.736,392.934 186.827,392.766C187.016,392.449 187.113,392.133 187.161,391.894C187.183,391.774 187.204,391.674 187.215,391.604C187.225,391.533 187.228,391.494 187.228,391.494C187.228,391.494 186.925,391.496 186.523,391.587C186.116,391.68 185.629,391.866 185.251,392.243C185.092,392.401 184.967,392.582 184.867,392.766C184.704,393.096 184.625,393.442 184.585,393.711C184.542,393.98 184.567,394.172 184.565,394.206C184.567,394.172 184.537,393.982 184.489,393.715C184.437,393.448 184.339,393.106 184.16,392.766C184.069,392.576 183.952,392.386 183.801,392.208C183.444,391.787 182.964,391.52 182.586,391.357C182.203,391.197 181.904,391.146 181.904,391.146C181.904,391.146 181.9,391.197 181.898,391.288C181.896,391.379 181.895,391.508 181.915,391.66C181.95,391.969 182.028,392.376 182.199,392.766C182.299,392.972 182.426,393.173 182.585,393.354Z" style="fill:white;fill-rule:nonzero;"/>
                    </g>
                    <g transform="matrix(23.4522,-21.7852,21.7852,23.4522,-6433.1,7064.67)">
                        <path d="M270.157,15.753C270.157,15.753 269.727,21.097 266.316,20.123C264.914,16.863 270.157,15.753 270.157,15.753Z" style="fill:white;fill-rule:nonzero;"/>
                        <path d="M270.157,15.753C270.157,15.753 264.914,16.863 266.316,20.123C269.727,21.097 270.157,15.753 270.157,15.753ZM269.978,15.956C269.911,16.487 269.68,17.888 269.011,18.921C268.482,19.737 267.671,20.317 266.43,19.992C265.951,18.803 266.422,17.924 267.163,17.295C268.101,16.499 269.461,16.09 269.978,15.956Z"/>
                    </g>
                </g>
                <g>
                    <g transform="matrix(20.467,-35.4499,35.4499,20.467,-17123,-38.2224)">
                        <path d="M182.585,393.354C182.965,393.778 183.453,393.992 183.861,394.099C184.262,394.206 184.566,394.212 184.566,394.212C184.566,394.212 184.865,394.164 185.248,394.018C185.627,393.871 186.11,393.63 186.469,393.259C186.619,393.103 186.736,392.934 186.827,392.766C187.016,392.449 187.113,392.133 187.161,391.894C187.183,391.774 187.204,391.674 187.215,391.604C187.225,391.533 187.228,391.494 187.228,391.494C187.228,391.494 186.925,391.496 186.523,391.587C186.116,391.68 185.629,391.866 185.251,392.243C185.092,392.401 184.967,392.582 184.867,392.766C184.704,393.096 184.625,393.442 184.585,393.711C184.542,393.98 184.567,394.172 184.565,394.206C184.567,394.172 184.537,393.982 184.489,393.715C184.437,393.448 184.339,393.106 184.16,392.766C184.069,392.576 183.952,392.386 183.801,392.208C183.444,391.787 182.964,391.52 182.586,391.357C182.203,391.197 181.904,391.146 181.904,391.146C181.904,391.146 181.9,391.197 181.898,391.288C181.896,391.379 181.895,391.508 181.915,391.66C181.95,391.969 182.028,392.376 182.199,392.766C182.299,392.972 182.426,393.173 182.585,393.354Z" style="fill:white;fill-rule:nonzero;"/>
                    </g>
                    <g transform="matrix(-7.06597,-31.2198,31.2198,-7.06597,1882.79,9943.8)">
                        <path d="M270.157,15.753C270.157,15.753 269.727,21.097 266.316,20.123C264.914,16.863 270.157,15.753 270.157,15.753Z" style="fill:white;fill-rule:nonzero;"/>
                        <path d="M270.157,15.753C270.157,15.753 264.914,16.863 266.316,20.123C269.727,21.097 270.157,15.753 270.157,15.753ZM269.978,15.956C269.911,16.487 269.68,17.888 269.011,18.921C268.482,19.737 267.671,20.317 266.43,19.992C265.951,18.803 266.422,17.924 267.163,17.295C268.101,16.499 269.461,16.09 269.978,15.956Z"/>
                    </g>
                </g>
            </g>
        </g>
        <g transform="matrix(1.01349,0,0,1.01349,-37.6901,2.29956)">
            <g>
                <path d="M913.911,1122.4L904.091,1122.4L904.091,979.489L786.127,1056.26L790.378,1181.82" style="fill:none;stroke:white;stroke-width:9.87px;"/>
                <path d="M891.338,1219.96L788.366,1122.4" style="fill:none;stroke:white;stroke-width:9.87px;"/>
                <path d="M850.019,1234.27L788.366,1181.82L746.806,1247.98" style="fill:none;stroke:white;stroke-width:9.87px;"/>
                <path d="M1027.37,1181.82L1001.86,1122.4L960,1141.03L985.922,1197.35" style="fill:none;stroke:white;stroke-width:9.87px;"/>
                <g transform="matrix(0.847055,0,0,0.847055,174.012,151.433)">
                    <path d="M1137.09,990.117C1137.53,1034.21 1137.96,1078.3 1138.4,1122.4" style="fill:none;stroke:white;stroke-width:11.65px;"/>
                </g>
                <g transform="matrix(1,0,0,1,-8.50193,-0.281218)">
                    <path d="M922.413,1234.55L922.413,1085.76" style="fill:none;stroke:white;stroke-width:9.87px;"/>
                </g>
            </g>
            <path d="M832.08,1256.17L832.08,1219.96L922.413,1219.96L922.413,1250.85C933.382,1248.96 944.909,1246.54 956.985,1243.48L960,1233.99L974.204,1233.1L979.619,1167.15L1090.91,1137.83L1095.58,1099.95L1200.39,1096.71L1204.12,1218.54C1209.17,1218.2 1213.74,1217.9 1217.75,1217.63C1264.54,1214.47 1304.85,1138.34 1304.85,1138.34L1430.59,1122.4L1327.76,1337.28C1327.76,1337.28 1205.44,1355.6 1124.55,1370.68C1014.09,1391.27 956.634,1346.88 938.528,1328.93C932.883,1330.14 926.571,1330.75 919.516,1330.63C848.166,1329.48 756.928,1365.51 737.338,1366.12C585.616,1370.89 646.84,1276.66 613.656,1260.13C591.062,1248.88 538.233,1266.93 538.233,1266.93C538.233,1266.93 542.612,1216.33 583.889,1223.56C605.893,1227.41 595.573,1268.25 684.581,1277.66C712.675,1280.63 737.678,1218.31 745.441,1220C759.358,1223.02 775.497,1249.09 794.925,1252.06C804.748,1253.57 817.156,1255.25 832.08,1256.17ZM1165.57,1262.47L1359.99,1247.04L1415.25,1132.84L1311.53,1148.14C1311.53,1148.14 1274.32,1202.84 1251.79,1214.52C1221.74,1230.12 1166.11,1230.27 1166.11,1230.27L1165.57,1262.47ZM1104.21,1108.13L1103.96,1128.66L1189.97,1124.9L1190.25,1105.12L1104.21,1108.13ZM1144.4,1156.28L1113.85,1156.67L1114.23,1186.61L1144.78,1186.22L1144.4,1156.28ZM1153.09,1230.27L1119.84,1230.27L1119.84,1262.47L1153.09,1262.47L1153.09,1230.27ZM1186.08,1155.75L1155.53,1156.14L1155.91,1186.08L1186.46,1185.69L1186.08,1155.75ZM1060.1,1227.14L1021.84,1227.14L1021.84,1266.93L1060.1,1266.93L1060.1,1227.14Z" style="fill:white;"/>
        </g>
    </g>
</svg>
